<mxfile host="65bd71144e">
    <diagram id="HjmXY29rLGAJ5JFK1KMT" name="cleaning-pipeline-v1">
        <mxGraphModel dx="1005" dy="565" grid="1" gridSize="10" guides="1" tooltips="1" connect="1" arrows="1" fold="1" page="1" pageScale="1" pageWidth="850" pageHeight="1100" math="0" shadow="0">
            <root>
                <mxCell id="0"/>
                <mxCell id="1" parent="0"/>
                <mxCell id="2" value="Regelbasiertes&lt;br&gt;Bereinigen" style="shape=step;perimeter=stepPerimeter;whiteSpace=wrap;html=1;fixedSize=1;" vertex="1" parent="1">
                    <mxGeometry x="195" y="130" width="160" height="60" as="geometry"/>
                </mxCell>
                <mxCell id="3" value="Stemming" style="shape=step;perimeter=stepPerimeter;whiteSpace=wrap;html=1;fixedSize=1;" vertex="1" parent="1">
                    <mxGeometry x="345" y="130" width="160" height="60" as="geometry"/>
                </mxCell>
                <mxCell id="4" value="StopwÃ¶rter&lt;br&gt;entfernen" style="shape=step;perimeter=stepPerimeter;whiteSpace=wrap;html=1;fixedSize=1;" vertex="1" parent="1">
                    <mxGeometry x="495" y="130" width="160" height="60" as="geometry"/>
                </mxCell>
            </root>
        </mxGraphModel>
    </diagram>
</mxfile>